<svg width="50" height="50" viewBox="0 0 50 50" fill="none" xmlns="http://www.w3.org/2000/svg">
<path d="M24.9998 4.1665C13.5207 4.1665 4.1665 13.5207 4.1665 24.9998V35.4165C4.1665 36.5623 5.104 37.4998 6.24984 37.4998H8.33317C11.7707 37.4998 14.5832 34.6873 14.5832 31.2498V27.0832C14.5832 23.8123 12.0623 21.1665 8.87484 20.8957C10.7082 13.6873 17.229 8.33317 24.9998 8.33317C32.7707 8.33317 39.2915 13.6873 41.1248 20.8957C37.9373 21.1665 35.4165 23.8332 35.4165 27.0832V31.2498C35.4165 33.1248 36.2498 34.7915 37.5623 35.9373C34.4165 39.5623 29.8748 41.6665 24.9998 41.6665C23.854 41.6665 22.9165 42.604 22.9165 43.7498C22.9165 44.8957 23.854 45.8332 24.9998 45.8332C31.5832 45.8332 37.6873 42.729 41.604 37.4998H41.6665H43.7498C44.8957 37.4998 45.8332 36.5623 45.8332 35.4165V24.9998C45.8332 13.5207 36.479 4.1665 24.9998 4.1665ZM10.4165 27.0832V31.2498C10.4165 32.3957 9.479 33.3332 8.33317 33.3332V24.9998C9.479 24.9998 10.4165 25.9373 10.4165 27.0832ZM39.5832 27.0832C39.5832 25.9373 40.5207 24.9998 41.6665 24.9998V33.3332C40.5207 33.3332 39.5832 32.3957 39.5832 31.2498V27.0832Z" fill="#E8B341"/>
<path d="M33.167 27.8752C33.6045 26.8127 33.1045 25.5836 32.042 25.1461C30.9795 24.7086 29.7504 25.2086 29.3129 26.2711C28.5837 28.0211 26.8754 29.1461 24.9795 29.1461C23.0837 29.1461 21.3754 28.0211 20.6462 26.2711C20.2087 25.2086 18.9795 24.7086 17.917 25.1461C16.8545 25.5836 16.3545 26.8127 16.792 27.8752C18.167 31.1877 21.3754 33.3336 24.9587 33.3336C28.542 33.3336 31.7504 31.1877 33.1254 27.8752H33.167Z" fill="#E8B341"/>
</svg>
