<svg width="71" height="70" viewBox="0 0 71 70" fill="none" xmlns="http://www.w3.org/2000/svg">
<g clip-path="url(#clip0_51_253)">
<path d="M65.6366 6.03089C62.643 3.10166 58.4936 1.37909 53.9526 1.18031C47.805 0.912574 42.4325 3.05446 38.42 7.37846C37.2027 8.69032 36.2495 10.0523 35.5191 11.2872C34.7887 10.0523 33.8355 8.69032 32.6182 7.37846C26.2003 -0.124168 12.48 -1.06063 5.41939 5.828C2.20109 8.90197 0.5 13.215 0.5 18.3009C0.5 18.7313 0.574698 38.174 0.577845 38.9935C0.511629 43.0459 4.66119 46.1199 8.51279 44.8834V53.5884C8.82334 61.7466 20.5181 61.7403 20.8256 53.5884V51.9964C22.7609 53.9072 24.5706 55.4964 26.1118 56.629C28.7918 58.5984 31.7471 60.4452 35.1954 60.6218C37.4382 60.7363 39.4733 60.0209 41.3173 59.0102V62.7256C41.6279 70.8839 53.3226 70.8776 53.6302 62.7256V54.8029C57.5162 56.2544 61.9179 53.1653 61.8387 48.998V38.2143C68.9506 28.2946 75.1649 15.659 65.6366 6.03089ZM58.1177 36.3656C57.8685 36.7139 57.7346 37.1315 57.7346 37.5597V48.998C57.6309 51.7173 53.7332 51.7158 53.6303 48.998C53.5302 46.2794 49.6262 46.2794 49.526 48.998V62.7256C49.4225 65.445 45.5242 65.4429 45.4218 62.7256V55.2245C45.4218 54.4528 44.9888 53.7462 44.301 53.3959C43.6157 53.0465 42.7886 53.1097 42.1631 53.5645C40.0144 55.1264 37.7245 56.6431 35.4054 56.5228C30.1363 55.9852 24.7079 50.186 20.2947 45.5005C19.7251 44.8715 18.8271 44.6579 18.0354 44.9631C17.2435 45.2682 16.7213 46.0293 16.7213 46.8779V53.5886C16.6178 56.3079 12.7195 56.3059 12.6171 53.5886V40.4672C12.6171 39.4783 11.912 38.6302 10.9399 38.4495C9.96734 38.2689 9.00503 38.8071 8.64987 39.7299C7.8063 41.831 4.70894 41.2594 4.68226 38.9858C4.6813 38.783 4.60428 18.7234 4.60428 18.3009C4.60428 9.10951 11.1445 5.54849 17.2649 5.28076C25.5265 4.67278 31.5308 10.6533 33.5728 16.7604C34.1945 18.6143 36.8427 18.6161 37.4649 16.7603C39.5022 10.6504 45.5305 4.6684 53.773 5.28076C60.0749 5.55643 66.4336 9.6893 66.4336 18.3009C66.4338 22.454 63.4805 28.8696 58.1177 36.3656Z" fill="#E8B341"/>
</g>
<defs>
<clipPath id="clip0_51_253">
<rect width="70" height="70" fill="white" transform="translate(0.5)"/>
</clipPath>
</defs>
</svg>
