<svg width="48" height="55" viewBox="0 0 48 55" fill="none" xmlns="http://www.w3.org/2000/svg">
<path d="M24.0421 -3.05176e-05L47.5467 13.6753V41.0261L24.0421 54.7015L0.537598 41.0261V13.6753L24.0421 -3.05176e-05Z" fill="#E8B341"/>
<path d="M30.6733 19.6939C29.9423 19.6939 29.3452 20.2909 29.3452 21.022C29.3452 21.7531 29.9423 22.3501 30.6733 22.3501C31.4044 22.3501 32.0015 21.7531 32.0015 21.022C32.0015 20.2909 31.4044 19.6939 30.6733 19.6939Z" fill="#FEF7F1"/>
<path d="M24.751 21.411C21.6682 21.411 19.1582 23.9211 19.1582 27.0038C19.1582 30.0865 21.6682 32.5966 24.751 32.5966C27.8337 32.5966 30.3437 30.0865 30.3437 27.0038C30.3437 23.9211 27.8337 21.411 24.751 21.411ZM24.751 30.5861C22.777 30.5861 21.1687 28.9777 21.1687 27.0038C21.1687 25.0299 22.777 23.4215 24.751 23.4215C26.7249 23.4215 28.3333 25.0299 28.3333 27.0038C28.3333 28.9777 26.7249 30.5861 24.751 30.5861Z" fill="#FEF7F1"/>
<path d="M29.1876 38.3728H20.11C16.345 38.3728 13.2866 35.3144 13.2866 31.5494V22.4718C13.2866 18.7068 16.345 15.6484 20.11 15.6484H29.1876C32.9527 15.6484 36.011 18.7068 36.011 22.4718V31.5494C36.011 35.3144 32.9527 38.3728 29.1876 38.3728ZM20.1222 17.7807C17.5391 17.7807 15.4311 19.8887 15.4311 22.4718V31.5494C15.4311 34.1325 17.5391 36.2405 20.1222 36.2405H29.1998C31.7829 36.2405 33.8909 34.1325 33.8909 31.5494V22.4718C33.8909 19.8887 31.7829 17.7807 29.1998 17.7807H20.1222Z" fill="#FEF7F1"/>
</svg>
