<svg width="50" height="50" viewBox="0 0 50 50" fill="none" xmlns="http://www.w3.org/2000/svg">
<path d="M26.4792 15.1875C25.6667 14.375 24.3542 14.375 23.5417 15.1875L16.6875 22.0417L14 19.3542C13.1875 18.5417 11.875 18.5417 11.0625 19.3542C10.25 20.1667 10.25 21.4792 11.0625 22.2917L15.2292 26.4583C15.625 26.8542 16.1458 27.0625 16.7083 27.0625C17.2708 27.0625 17.7917 26.8333 18.1875 26.4583L26.5208 18.125C27.3333 17.3125 27.3333 16 26.5208 15.1875H26.4792Z" fill="#E8B341"/>
<path d="M46.9671 31.21L45.3059 17.71C45.0401 15.46 43.1574 13.75 40.9203 13.75H34.0096V11.5C34.0096 9.025 32.0161 7 29.5796 7H7.42994C4.99347 7 3 9.025 3 11.5V31.75C3 34.225 4.99347 36.25 7.42994 36.25C7.42994 39.9625 10.4201 43 14.0748 43C17.7295 43 20.7197 39.9625 20.7197 36.25H29.5796C29.5796 39.9625 32.5698 43 36.2245 43C39.8792 43 42.8694 39.9625 42.8694 36.25C42.8694 36.25 42.8694 36.25 42.8694 36.2275C44.0212 36.16 45.1066 35.6425 45.8818 34.7425C46.7235 33.775 47.1222 32.4925 46.9671 31.21ZM14.0748 38.5C12.8566 38.5 11.8599 37.4875 11.8599 36.25C11.8599 35.0125 12.8566 34 14.0748 34C15.2931 34 16.2898 35.0125 16.2898 36.25C16.2898 37.4875 15.2931 38.5 14.0748 38.5ZM18.9921 31.75C17.7738 30.3775 16.024 29.5 14.0748 29.5C12.1257 29.5 10.3758 30.3775 9.15761 31.75H7.42994V11.5H29.5796V31.75H18.9921ZM36.2245 38.5C35.0063 38.5 34.0096 37.4875 34.0096 36.25C34.0096 35.0125 35.0063 34 36.2245 34C37.4428 34 38.4395 35.0125 38.4395 36.25C38.4395 37.4875 37.4428 38.5 36.2245 38.5ZM36.2245 29.5C35.4493 29.5 34.6962 29.6575 34.0096 29.905V18.25H40.9203L42.5815 31.75H41.1418C39.9235 30.3775 38.1737 29.5 36.2245 29.5Z" fill="#E8B341"/>
</svg>
