<svg width="71" height="70" viewBox="0 0 71 70" fill="none" xmlns="http://www.w3.org/2000/svg">
<g clip-path="url(#clip0_51_247)">
<path d="M35.5 0.957031C16.1564 0.957031 0.5 16.6108 0.5 35.957C0.5 47.5172 6.2032 58.3228 15.7548 64.8608C16.7113 65.515 18.0155 65.2693 18.6697 64.3144C19.3239 63.3579 19.0793 62.0537 18.1228 61.3995C9.71463 55.6445 4.69342 46.1335 4.69342 35.957C4.69342 18.9713 18.5132 5.15045 35.5 5.15045C52.5765 5.15045 66.3066 18.8757 66.3066 35.957C66.3066 48.7349 58.621 59.9992 46.7248 64.6551C44.6521 65.4674 42.4011 65.209 40.5506 63.9454C37.3008 61.7285 37.5967 58.49 37.5967 56.9097C45.8906 55.8742 52.3276 48.7814 52.3276 40.2124C52.3276 32.6427 41.561 16.8084 37.1871 10.8691C36.3492 9.73534 34.6508 9.73534 33.8129 10.8691C29.3653 16.9088 18.6724 32.6592 18.6724 40.2124C18.6724 48.7814 25.1094 55.8742 33.4033 56.9097V58.3591C33.4033 66.033 41.1231 71.348 48.2544 68.5612C54.7362 66.0223 60.2717 61.6484 64.2601 55.9105C68.3419 50.0364 70.5 43.1364 70.5 35.957C70.5 16.5611 54.8986 0.957031 35.5 0.957031ZM35.4957 15.7173C38.825 20.4816 48.1342 34.3917 48.1342 40.2124C48.1342 46.4635 43.5701 51.6706 37.5967 52.6714V45.9866L43.2834 42.801C44.2938 42.2349 44.6548 40.9558 44.0887 39.9464C43.5226 38.936 42.2446 38.5766 41.2342 39.1427L37.5967 41.1806V27.1926C37.5967 26.0348 36.6573 25.0954 35.5 25.0954C34.3427 25.0954 33.4033 26.0348 33.4033 27.1926V34.0868L29.7658 32.0488C28.7565 31.4827 27.4774 31.8416 26.9113 32.8526C26.3452 33.863 26.7062 35.1405 27.715 35.7066L33.4033 38.8938V52.6714C27.4299 51.6706 22.8658 46.4635 22.8658 40.2124C22.8658 34.8457 30.8574 22.3322 35.4957 15.7173Z" fill="#E8B341"/>
</g>
<defs>
<clipPath id="clip0_51_247">
<rect width="70" height="70" fill="white" transform="translate(0.5)"/>
</clipPath>
</defs>
</svg>
