<svg width="194" height="194" viewBox="0 0 194 194" fill="none" xmlns="http://www.w3.org/2000/svg">
<rect width="194" height="194" rx="97" fill="#E8B341"/>
<path fill-rule="evenodd" clip-rule="evenodd" d="M94.875 75H88.5C84.981 75 82.125 77.856 82.125 81.375C82.125 82.2038 82.2844 82.9964 82.5712 83.7231C79.8661 84.4605 77.875 86.9361 77.875 89.875C77.875 90.7038 78.0344 91.4964 78.3212 92.2231C75.6161 92.9605 73.625 95.4361 73.625 98.375C73.625 101.314 75.6161 103.79 78.3212 104.527C78.0344 105.254 77.875 106.046 77.875 106.875C77.875 109.814 79.8661 112.29 82.5712 113.027C82.2844 113.754 82.125 114.546 82.125 115.375C82.125 118.894 84.981 121.75 88.5 121.75H105.5C109.019 121.75 111.875 118.894 111.875 115.375C111.875 114.546 111.716 113.754 111.429 113.027C114.134 112.29 116.125 109.814 116.125 106.875C116.125 106.046 115.966 105.254 115.679 104.527C118.384 103.79 120.375 101.314 120.375 98.375C120.375 95.4361 118.384 92.9605 115.679 92.2231C115.966 91.4964 116.125 90.7038 116.125 89.875C116.125 86.9361 114.134 84.4605 111.429 83.7231C111.716 82.9964 111.875 82.2038 111.875 81.375C111.875 77.856 109.019 75 105.5 75H99.125V64.375C99.125 63.202 98.173 62.25 97 62.25C95.827 62.25 94.875 63.202 94.875 64.375V75ZM111.875 106.875C111.875 108.048 110.923 109 109.75 109H84.25C83.077 109 82.125 108.048 82.125 106.875C82.125 105.702 83.077 104.75 84.25 104.75H109.75C110.923 104.75 111.875 105.702 111.875 106.875ZM109.75 92H84.25C83.077 92 82.125 91.048 82.125 89.875C82.125 88.702 83.077 87.75 84.25 87.75H109.75C110.923 87.75 111.875 88.702 111.875 89.875C111.875 91.048 110.923 92 109.75 92Z" fill="#353535"/>
<g clip-path="url(#clip0_51_96)">
<path d="M113.378 35.8829L115.599 28.3101C116.123 26.5242 116.254 25.6886 115.753 24.1845C117.383 24.0054 119.004 23.744 120.608 23.4014L116.677 36.8365C116.186 38.5143 115.865 39.7857 116.218 41.6076L111.243 40.1461C112.461 38.8157 112.887 37.5607 113.378 35.8829Z" fill="#353535"/>
<path d="M124.155 34.5656C126.933 29.5946 131.227 27.6351 134.84 29.6503C138.453 31.6656 138.728 36.4466 136.059 41.2177C133.281 46.1887 128.99 48.1482 125.4 46.133C121.757 44.1079 121.489 39.3367 124.155 34.5656ZM132.157 40.5262C135.007 35.3717 135.4 31.7148 133.556 30.6957C131.836 29.7355 130.041 31.7344 128.06 35.2833C125.21 40.4378 124.836 44.1046 126.684 45.1401C128.403 46.0805 130.176 44.0685 132.157 40.5262Z" fill="#353535"/>
<path d="M140.782 44.8451C144.864 40.8769 149.535 40.2248 152.424 43.2067C155.313 46.1887 154.209 50.8254 150.291 54.6364C146.21 58.608 141.536 59.2601 138.669 56.3076C135.803 53.3552 136.861 48.6594 140.782 44.8451ZM146.747 52.844C150.95 48.7184 152.381 45.3334 150.901 43.8129C149.525 42.3973 147.235 43.8129 144.323 46.631C140.121 50.7566 138.719 54.1678 140.193 55.6817C141.572 57.0973 143.838 55.6752 146.747 52.844Z" fill="#353535"/>
<path d="M171.769 77.404L172.287 78.8688L149.538 70.7291L149.066 69.3987L171.769 77.404ZM157.062 76.6733C160.065 75.6083 162.43 76.7126 163.253 79.0228C164.147 81.5493 162.476 83.6694 159.794 84.623C156.79 85.688 154.441 84.5476 153.622 82.2341C152.725 79.711 154.379 77.6269 157.062 76.6733ZM157.527 82.2833C160.475 81.238 162.486 80.0747 162.113 79.0359C161.867 78.3445 160.881 78.4264 159.338 78.9769C156.203 80.0878 154.389 81.2118 154.752 82.221C155.001 82.9387 156.04 82.8109 157.527 82.2833ZM161.828 63.9689C164.828 62.9039 167.196 64.0082 168.015 66.3217C168.903 68.8187 167.232 70.9388 164.55 71.8924C161.546 72.9573 159.197 71.817 158.385 69.5297C157.491 67.0066 159.145 64.9225 161.828 63.9689ZM162.293 69.5822C165.241 68.5369 167.242 67.3474 166.879 66.3348C166.623 65.6204 165.644 65.7286 164.104 66.2758C160.969 67.3867 159.145 68.4844 159.518 69.5199C159.764 70.2081 160.806 70.1098 162.293 69.5822Z" fill="#353535"/>
<path d="M164.026 109.268C157.802 108.721 154.88 104.9 155.27 100.463L155.758 94.8927C157.22 95.5411 158.782 95.9356 160.377 96.0593L169.247 96.8424C170.839 97.0122 172.448 96.899 174 96.5082L173.496 102.262C173.142 106.283 170.371 109.825 164.026 109.268ZM163.653 105.474C168.369 105.887 172.12 104.717 172.405 101.46L172.464 100.804C171.236 100.637 170.115 100.513 168.936 100.408L160.066 99.6278C158.886 99.5117 157.7 99.4647 156.515 99.4869C156.463 99.7654 156.44 100.044 156.413 100.326C156.109 103.793 159.529 105.11 163.653 105.474Z" fill="#353535"/>
<path d="M154.471 123.919L149.718 122.228L153.648 111.775C154.882 112.793 156.278 113.595 157.779 114.148L166.115 117.277C167.605 117.866 169.188 118.184 170.79 118.217L166.859 128.703L162.208 126.822C164.802 126.41 166.613 125.433 168.071 122.186L168.169 121.924C167.065 121.419 165.958 121.003 164.874 120.596L161.526 119.338L161.395 119.682C160.665 121.648 160.635 123.07 161.674 125.115L156.433 123.149C158.509 122.271 159.564 121.222 160.298 119.269L160.426 118.925L156.547 117.47C155.466 117.064 154.346 116.674 153.174 116.353L153.144 116.432C151.85 120.075 152.784 121.842 154.471 123.919Z" fill="#353535"/>
<path d="M147.058 137.895L145.636 136.65C144.435 135.593 143.072 134.738 141.598 134.117L144.926 130.322C145.717 131.714 146.752 132.953 147.982 133.979L154.674 139.855C155.85 140.945 157.22 141.806 158.713 142.391L154.864 146.779C153.364 148.496 150.383 151.176 146.694 147.932C143.475 145.104 144.14 141.224 146.724 138.278L147.058 137.895ZM155.001 144.97C154.127 144.131 153.213 143.289 152.345 142.528L147.874 138.596L147.5 139.019C146.033 140.693 146.465 142.725 148.86 144.826C151.424 147.077 153.308 146.893 154.795 145.196L155.001 144.97Z" fill="#353535"/>
<path d="M123.268 148.987L127.08 146.471L131.833 150.501C132.783 151.327 133.337 151.5 133.799 151.307C134.241 151.052 134.758 150.711 135.227 150.399L133.553 147.857C132.661 146.529 131.572 145.344 130.323 144.344L134.582 141.532C134.973 143.084 135.639 144.553 136.547 145.871L141.46 153.313C142.308 154.674 143.402 155.866 144.687 156.825L139.361 160.351C136.937 161.95 133.792 162.707 131.647 159.46C131.089 158.613 130.788 157.624 130.78 156.61C130.771 155.596 131.055 154.601 131.597 153.745C130.648 154.204 130.025 153.975 128.895 153.031L125.921 150.567C125.135 149.89 124.237 149.355 123.268 148.987ZM135.276 151.576C133.347 152.847 132.613 154.145 134.473 156.97C136.036 159.283 137.883 159.991 139.557 158.89C139.816 158.716 140.098 158.533 140.363 158.32C139.708 157.294 139.076 156.265 138.44 155.298L135.771 151.248L135.276 151.576Z" fill="#353535"/>
<path d="M123.929 158.775C125.583 164.225 123.791 168.714 119.586 169.992C115.458 171.244 111.544 168.334 109.9 162.914C108.232 157.409 109.962 152.91 114.194 151.625C118.377 150.357 122.321 153.47 123.929 158.775ZM113.048 159.984C114.685 165.352 117.355 169.048 119.864 168.285C121.725 167.721 121.951 165.561 120.791 161.731C119.196 156.468 116.569 152.556 113.912 153.355C112.065 153.919 111.927 156.288 113.048 159.984Z" fill="#353535"/>
<path d="M90.2198 163.956C90.3181 157.7 93.9212 154.512 98.3728 154.584L103.941 154.673C103.402 156.18 103.123 157.768 103.116 159.368L102.975 168.275C102.923 169.876 103.154 171.473 103.66 172.993L97.8847 172.902C93.8557 172.846 90.1183 170.333 90.2198 163.956ZM93.9769 163.3C93.9016 168.039 95.3396 171.696 98.6086 171.748H99.2834C99.3587 170.506 99.4046 169.379 99.4242 168.196L99.5651 159.29C99.597 158.103 99.5598 156.916 99.4537 155.734C99.172 155.701 98.8903 155.698 98.6086 155.692C95.1135 155.665 94.0424 159.175 93.9769 163.317V163.3Z" fill="#353535"/>
<path d="M69.1416 167.783C70.0976 166.518 70.8076 165.084 71.2347 163.556L73.6259 155.59C74.34 153.214 76.3676 150.38 80.9305 151.75C85.382 153.087 85.4606 156.557 84.7466 158.932L82.3554 166.895C81.8849 168.407 81.6788 169.989 81.7461 171.571L76.967 170.136C78.0316 168.747 78.5164 167.331 78.952 165.876L81.3203 157.992C82.0278 155.642 81.2122 154.043 79.1617 153.427C77.1111 152.811 75.7092 153.755 75.0049 156.091L72.6367 163.976C72.1298 165.487 71.95 167.089 72.1093 168.675L69.1416 167.783Z" fill="#353535"/>
<path d="M68.3027 152.159L63.9396 159.922C63.1274 161.305 62.5798 162.828 62.3247 164.411L57.8765 161.914C59.0894 160.866 60.0958 159.6 60.8442 158.182L65.204 150.416C66.0272 149.04 66.5974 147.527 66.8876 145.949L71.2835 148.42C70.0757 149.479 69.0663 150.746 68.3027 152.159Z" fill="#353535"/>
<path d="M46.6543 152.123L54.8761 142.682C55.9646 141.494 56.8004 140.098 57.3328 138.577L61.2864 142.024C59.8615 142.771 58.5946 143.787 57.5555 145.016L49.3305 154.453C51.2238 156.091 52.7698 155.914 55.9537 154.276L52.1999 158.415L42.3403 149.813L45.9435 145.553C44.6136 149.026 44.7413 150.455 46.6543 152.123Z" fill="#353535"/>
<path d="M38.9862 140.241C40.0541 139.504 40.2965 138.373 40.1785 135.614L40.0737 132.993C40.0115 131.027 40.3096 129.162 42.1439 127.897C42.7591 127.465 43.4544 127.159 44.1891 126.999C44.9238 126.839 45.683 126.827 46.4223 126.965C47.1615 127.102 47.8659 127.386 48.4942 127.799C49.1224 128.213 49.6618 128.747 50.0807 129.372C51.5383 131.485 51.499 134.359 49.6057 136.83L46.3924 135.447C48.5739 132.498 48.7475 130.565 47.9155 129.359C47.2407 128.376 46.127 128.159 45.2 128.798C44.1322 129.536 43.7096 130.411 43.821 132.662L44.0044 136.103C44.1093 138.291 44.0732 140.035 42.0391 141.424C39.602 143.105 35.9628 142.407 33.5913 138.96C32.8854 137.917 32.3224 136.784 31.9175 135.591L36.9062 133.039C35.7368 135.218 35.2357 138.065 36.3887 139.737C37.0471 140.657 38.0625 140.883 38.9862 140.241Z" fill="#353535"/>
<path d="M21.6846 108.089C23.2605 108.263 24.855 108.152 26.3916 107.761L39.6905 104.566L40.2146 106.761L29.6836 117.303L37.4959 115.425C39.0384 115.068 40.5085 114.45 41.8426 113.597L42.5338 116.477C40.9575 116.318 39.3657 116.429 37.8267 116.805L28.3668 119.063C26.9976 119.391 25.6186 119.925 24.7145 120.75L23.7318 116.612C23.9889 116.666 24.2544 116.666 24.5114 116.612C25.0879 116.474 25.5924 116.032 26.2409 115.353L34.4299 107.325L26.7257 109.177C25.1829 109.531 23.7125 110.148 22.379 111.002L21.6846 108.089Z" fill="#353535"/>
<path d="M39.5399 92.4973C39.1861 92.2581 38.459 92.1106 37.6695 92.0778C36.8812 92.0463 36.0921 92.1146 35.3209 92.281L33.6078 92.684L33.4112 97.1373L35.0785 97.6911C35.7657 97.9203 36.4809 98.0548 37.2044 98.0909C38.0757 98.1269 38.9012 98.0221 39.3041 97.7861L39.1435 101.391C38.115 100.408 36.7065 99.7326 34.8853 99.0281L21 93.8998L21.0753 92.2122L35.3537 88.3324C37.0963 87.8474 38.6293 87.3493 39.8085 86.5006L39.5399 92.4973ZM32.6415 92.897L25.6153 94.5027L32.4941 96.7965L32.6415 92.897Z" fill="#353535"/>
<path d="M25.753 73.5931L37.7548 77.119C39.2896 77.608 40.9072 77.7829 42.511 77.6335L41.0304 82.6635C39.7546 81.6842 38.3022 80.9599 36.7525 80.5302L24.7507 77.001C24.0432 79.4063 24.8555 80.7334 27.6725 82.9453L22.3398 81.261L26.0282 68.7106L31.4067 70.2048C27.7086 70.4375 26.4671 71.1584 25.753 73.5931Z" fill="#353535"/>
<path d="M36.1269 50.6091C37.0941 51.866 38.2899 52.9288 39.6514 53.7418L46.7005 58.1459C48.8034 59.4567 51.0046 62.1601 48.4824 66.2004C46.0225 70.1327 42.6584 69.3069 40.5555 67.9929L33.5064 63.5921C32.1719 62.7427 30.7017 62.1286 29.1597 61.7767L31.7998 57.543C32.8578 58.9356 34.0927 59.7745 35.3866 60.5806L42.3636 64.9389C44.4436 66.2496 46.1993 65.8695 47.3327 64.0541C48.4661 62.2387 47.9321 60.6396 45.8554 59.342L38.8751 54.9837C37.5522 54.0978 36.0559 53.5035 34.4858 53.2405L36.1269 50.6091Z" fill="#353535"/>
<path d="M63.8808 48.6856L60.4905 51.7462L55.184 48.4694C54.1227 47.814 53.5462 47.7091 53.1335 47.968C52.7404 48.2957 52.2786 48.702 51.8593 49.0821L53.9033 51.3399C54.984 52.5192 56.2389 53.526 57.6244 54.3251L53.8378 57.7494C53.2092 56.2743 52.3217 54.9237 51.2173 53.7615L45.2688 47.1619C44.2241 45.9433 42.961 44.9309 41.5444 44.1767L46.2515 39.9036C48.4068 37.9572 51.4007 36.7284 54.0114 39.6153C54.6898 40.3678 55.1366 41.3003 55.2981 42.3006C55.4597 43.301 55.3291 44.3268 54.922 45.2548C55.79 44.6616 56.4451 44.7927 57.703 45.5562L61.0146 47.542C61.8967 48.0862 62.8664 48.4731 63.8808 48.6856ZM51.6202 47.9549C53.3366 46.4017 53.864 45.0057 51.5972 42.4989C49.704 40.4476 47.7681 40.0282 46.2842 41.3717C46.0517 41.5814 45.8027 41.8075 45.5701 42.0565C46.3596 42.9741 47.1523 43.8916 47.9286 44.7501L51.1812 48.3547L51.6202 47.9549Z" fill="#353535"/>
<path d="M73.7111 37.8491L76.0827 42.3023L66.1478 47.3847C65.9184 45.8003 65.4234 44.2659 64.6836 42.8463L60.6284 34.9163C59.9231 33.4781 58.9682 32.1767 57.8081 31.0725L67.7659 25.977L69.9508 30.4958C67.7561 29.0507 65.7613 28.5526 62.4955 29.9715L62.2465 30.0993C62.7215 31.2167 63.262 32.2718 63.7893 33.3008L65.4271 36.4859L65.7547 36.3188C67.6087 35.3718 68.5979 34.3264 69.2072 32.1146L71.7589 37.1085C69.6363 36.3614 68.1557 36.4236 66.2919 37.3739L65.9643 37.541L67.8511 41.2308C68.3752 42.2597 68.9419 43.3018 69.5937 44.3274L69.6691 44.2914C73.0593 42.4563 73.5572 40.523 73.7111 37.8491Z" fill="#353535"/>
<path d="M88.4381 33.9037L89.519 38.8354L79.2795 41.2078C79.433 39.6145 79.3145 38.0066 78.929 36.4531L76.9178 27.7727C76.5861 26.2054 75.9759 24.7104 75.1162 23.3587L79.8953 22.2512C79.8251 23.8436 79.9885 25.4378 80.3801 26.9829L82.388 35.6634C82.6359 36.7962 82.9643 37.9099 83.3707 38.9959L83.8097 38.8943C86.3319 38.3012 87.8517 36.5612 88.4381 33.9037Z" fill="#353535"/>
<path d="M95.1008 23.6275C95.0811 24.9382 95.8542 25.7837 98.17 27.2878L100.374 28.7296C102.012 29.8273 103.352 31.1479 103.323 33.3729C103.317 34.125 103.162 34.8685 102.865 35.5597C102.569 36.2508 102.137 36.8758 101.596 37.3978C101.054 37.9198 100.414 38.3283 99.7129 38.5994C99.0116 38.8704 98.2631 38.9986 97.5116 38.9763C94.9468 38.9337 92.6342 37.2363 91.7236 34.2609L94.7143 32.4455C95.8411 35.9321 97.3151 37.197 98.7793 37.2199C99.965 37.2396 100.794 36.463 100.813 35.3357C100.833 34.025 100.365 33.1861 98.4681 31.9704L95.5659 30.119C93.725 28.936 92.3329 27.8972 92.3722 25.4462C92.4181 22.497 95.1106 19.9345 99.2804 20C100.538 20.0336 101.786 20.2341 102.992 20.5964L102.17 26.1376C101.075 23.9191 99.0544 21.858 97.0236 21.8252C95.8902 21.8088 95.1172 22.5003 95.1008 23.6275Z" fill="#353535"/>
</g>
<defs>
<clipPath id="clip0_51_96">
<rect width="153" height="153" fill="white" transform="translate(21 20)"/>
</clipPath>
</defs>
</svg>
