<svg width="50" height="50" viewBox="0 0 50 50" fill="none" xmlns="http://www.w3.org/2000/svg">
<path d="M45.6875 15.8957L42.0417 6.7915C41.3958 5.20817 39.8958 4.1665 38.1667 4.1665H11.8333C10.125 4.1665 8.60417 5.18734 7.95833 6.7915L4.3125 15.8957C4.22917 16.1248 4.1875 16.354 4.1875 16.5832V16.6665V41.6665C4.1875 43.9582 6.0625 45.8332 8.35417 45.8332H41.6875C43.9792 45.8332 45.8542 43.9582 45.8542 41.6665V16.6665C45.8542 16.6665 45.8542 16.6248 45.8542 16.5832C45.8542 16.354 45.8125 16.104 45.7292 15.8957H45.6875ZM11.8333 8.33317H38.1875L40.6875 14.5832H9.33333L11.8333 8.33317ZM14.5833 18.7498H20.8333V25.7498L18.6667 24.6248C18.0625 24.3123 17.3542 24.3123 16.75 24.6248L14.5833 25.7498V18.7498ZM8.33333 41.6665V18.7498H10.4167V29.1665C10.4167 29.8957 10.7917 30.5623 11.4167 30.9373C12.0417 31.3123 12.8125 31.354 13.4583 31.0207L17.7083 28.8332L21.9583 31.0207C22.25 31.1665 22.5833 31.2498 22.9167 31.2498C23.2917 31.2498 23.6667 31.1457 24 30.9373C24.625 30.5623 25 29.8957 25 29.1665V18.7498H41.6667V41.6665H8.33333Z" fill="#E8B341"/>
</svg>
