<svg width="71" height="70" viewBox="0 0 71 70" fill="none" xmlns="http://www.w3.org/2000/svg">
<path d="M46.9191 2.05884H24.0811V10.2806H46.9191V2.05884Z" stroke="#E8B341" stroke-width="4.1" stroke-miterlimit="10" stroke-linecap="round" stroke-linejoin="round"/>
<path d="M25.8594 10.2805V12.8675C25.8594 15.9753 23.9292 18.7811 21.0005 19.8208C15.0795 21.9229 10.8394 27.5739 10.8394 34.216V59.8684C10.8394 64.3271 14.4537 67.9415 18.9124 67.9415H52.0877C56.5464 67.9415 60.1608 64.3271 60.1608 59.8684V34.216C60.1608 27.5739 55.9206 21.9231 49.9996 19.8208C47.0709 18.7811 45.1407 15.9752 45.1407 12.8675V10.2805" stroke="#E8B341" stroke-width="4.1" stroke-miterlimit="10" stroke-linecap="round" stroke-linejoin="round"/>
<circle cx="21.6289" cy="50.9964" r="2.05861" fill="#E8B341"/>
<circle cx="25.7461" cy="57.3093" r="2.05861" fill="#E8B341"/>
<circle cx="17.5117" cy="57.3093" r="2.05861" fill="#E8B341"/>
<path d="M12.0742 42.8623L38.6904 42.8458C40.7445 42.8446 42.6462 41.8703 43.9537 40.286C44.6911 39.3925 45.807 38.823 47.0559 38.823C48.3048 38.823 49.4207 39.3925 50.1581 40.286C51.4667 41.8715 53.369 42.8481 55.4248 42.8524L59.4743 42.8623" stroke="#E8B341" stroke-width="4.1" stroke-miterlimit="10" stroke-linecap="round" stroke-linejoin="round"/>
</svg>
