<svg width="50" height="50" viewBox="0 0 50 50" fill="none" xmlns="http://www.w3.org/2000/svg">
<path d="M37.4998 8.3335H12.4998C7.89567 8.3335 4.1665 12.0627 4.1665 16.6668V33.3335C4.1665 37.9377 7.89567 41.6668 12.4998 41.6668H37.4998C42.104 41.6668 45.8332 37.9377 45.8332 33.3335V16.6668C45.8332 12.0627 42.104 8.3335 37.4998 8.3335ZM12.4998 12.5002H37.4998C39.7915 12.5002 41.6665 14.3752 41.6665 16.6668V18.7502H8.33317V16.6668C8.33317 14.3752 10.2082 12.5002 12.4998 12.5002ZM41.6665 33.3335C41.6665 35.6252 39.7915 37.5002 37.4998 37.5002H12.4998C10.2082 37.5002 8.33317 35.6252 8.33317 33.3335V22.9168H41.6665V33.3335Z" fill="#E8B341"/>
<path d="M12.4998 35.4167C13.6504 35.4167 14.5832 34.4839 14.5832 33.3333C14.5832 32.1827 13.6504 31.25 12.4998 31.25C11.3492 31.25 10.4165 32.1827 10.4165 33.3333C10.4165 34.4839 11.3492 35.4167 12.4998 35.4167Z" fill="#E8B341"/>
</svg>
