<svg width="47" height="55" viewBox="0 0 47 55" fill="none" xmlns="http://www.w3.org/2000/svg">
<path d="M23.5045 0L47.0091 13.6754V41.0261L23.5045 54.7015L0 41.0261V13.6754L23.5045 0Z" fill="#E8B341"/>
<g clip-path="url(#clip0_51_437)">
<path fill-rule="evenodd" clip-rule="evenodd" d="M28.6634 15.6675C28.6647 16.0141 28.7659 21.0237 34.0231 21.3362C34.0231 22.7808 34.0249 23.8283 34.0249 25.2069C33.6268 25.2299 30.5639 25.0076 28.6576 23.3072L28.6518 30.8427C28.7242 36.0728 24.8752 39.2556 19.8443 38.1562C11.1691 35.5611 14.0518 22.6943 22.7626 24.0715C22.7626 28.2254 22.7648 24.0702 22.7648 28.2254C19.1662 27.6959 17.9625 30.6896 18.9189 32.8328C19.7889 34.7844 23.372 35.2074 24.6218 32.4543C24.7634 31.9154 24.8339 31.3012 24.8339 30.6114V15.6484L28.6634 15.6675Z" fill="#FEF7F1"/>
</g>
<defs>
<clipPath id="clip0_51_437">
<rect width="22.7244" height="22.7244" fill="white" transform="translate(12.9526 15.6484)"/>
</clipPath>
</defs>
</svg>
